<?xml version="1.0" standalone="no"?><svg xmlns="http://www.w3.org/2000/svg" viewBox="0 0 1440 320"><path fill="#0099ff" fill-opacity="1" d="M0,160L30,181.3C60,203,120,245,180,234.7C240,224,300,160,360,165.3C420,171,480,245,540,250.7C600,256,660,192,720,160C780,128,840,128,900,160C960,192,1020,256,1080,245.3C1140,235,1200,149,1260,117.3C1320,85,1380,107,1410,117.3L1440,128L1440,320L1410,320C1380,320,1320,320,1260,320C1200,320,1140,320,1080,320C1020,320,960,320,900,320C840,320,780,320,720,320C660,320,600,320,540,320C480,320,420,320,360,320C300,320,240,320,180,320C120,320,60,320,30,320L0,320Z"></path></svg>